# xmcd
#
# Track frame offsets: 
#        150
#        14665
#        31335
#        50656
#        71117
#
# Disc length: 1095 seconds
#
# Revision: 0
# Processed by: cddbd v1.5.2PL0 Copyright (c) Steve Scherf et al.
# Submitted via: ExactAudioCopy v0.99pb4
#
DISCID=44044505
DTITLE=The Users - Pictures Of Love
DYEAR=2004
DGENRE=
TTITLE0=Lies
TTITLE1=Road Leaving The Town
TTITLE2=Pictures Of Love
TTITLE3=Lordy Lordy
TTITLE4=Jerry Lee Lewis
EXTD=
EXTT0=
EXTT1=
EXTT2=
EXTT3=
EXTT4=
PLAYORDER=
